<?xml version="1.0" encoding="UTF-8"?><svg width="135px" height="50px" viewBox="0 0 135 50" version="1.1" xmlns="http://www.w3.org/2000/svg"><path d="M14.2 39.8c7.83 0 8.73-2.05 8.73-7.98 0-3.65-1.8-5.92-6.57-7.46-2.9-.95-3.97-1.48-3.97-2.22 0-.85.37-1.16 2.7-1.16h1.06c2.86 0 3.28.84 3.28 2.32h3.4V8.28h-3.77v5.82c0 .47-.15 1.27-.84 1.27-.8 0-.9-.85-.96-2.17-.42-3.76-2.06-5.24-8.1-5.24C1.43 7.96 0 9.44 0 16.53c0 5.13 1.17 6.24 7.57 7.88 2.33.75 2.92 1.12 2.92 1.86 0 .95-.64 1.32-3.02 1.32h-.8c-2.43 0-2.8-.27-2.8-2.06H.47v14.01h3.77v-6.13c0-.48.2-.9.84-.9.7 0 .9.9.96 2.17.26 3.49 1.48 5.13 8.15 5.13zm33.25-12.92H44.1c0 .58-.53.69-1.32.69H32c-1.26 0-1.95-.74-2.16-1.9-.05-.06-.05-.17-.05-.27h17.67c0-16.17-1.15-17.44-11.57-17.44-9.79 0-11.33 1.25-11.36 15.88v1.32c.03 13.96.83 14.95 11.2 14.97h.32c10.89 0 11.41-.85 11.41-13.25zm-5.1-3.31H29.95c.05-.44.2-.84.42-1.18.31-.49.84-.73 1.58-.73h8.47c1.42 0 1.95.39 1.95 1.9zM60.2 39.8V26.96h-1.01c-1.53 0-1.65-.54-1.66-1.92V0h-8.16v13.16h1.66c1.22 0 1.6.53 1.6 2.4v9.12c0 1.7-.38 2.28-1.6 2.28h-1.66v12.85H60.2zm24.2-12.93h-3.36c0 .58-.53.69-1.32.69H68.93c-1.26 0-1.94-.74-2.15-1.9-.06-.06-.06-.17-.06-.27H84.4c0-16.17-1.15-17.44-11.57-17.44-9.78 0-11.33 1.25-11.36 15.88v1.32c.03 13.96.84 14.95 11.2 14.97h.32c10.89 0 11.41-.85 11.41-13.25zm-5.1-3.31H66.89c.05-.44.2-.84.42-1.18.32-.49.84-.73 1.58-.73h8.47c1.42 0 1.95.39 1.95 1.9zm20.9 16.24V26.96h-2.8c-1.1 0-1.58-.58-1.58-2.28 0-1.86.37-2.39 1.58-2.39h4.44c.69 0 1.16.22 1.16 1.22v1.01h3.38v-10.5c0-5.2-1.21-5.74-4.54-5.74-2.59 0-3.49 1-4.01 2.18-1.59 2.5.1 6.1-1.59 6.1-.74 0-.83-.56-.84-1.11V8.44h-8.77v13.85h2.75c1.21 0 1.58.53 1.58 2.4 0 1.69-.37 2.27-1.58 2.27h-2.7v12.85h13.52zm24.78 2.5l5.66-18c.59-1.86 1.12-2.18 2.18-2.18h1.58V8.28h-12.44v13.85h4.02c0 .8-.1 1.76-.47 2.55-.83 2.11-1.4 2.28-4.08 2.28h-.27c-2.91 0-3.5-.1-4.34-2.28a6.21 6.21 0 01-.48-2.55h4.03V8.28h-12.72v13.85h1.6c1 0 1.58.32 2.16 2.18L115.43 37h6.25c-.42 1.85-1 2.65-2.49 2.65h-5.5c-1.01 0-1.33-.42-1.33-1.33h-2.86c0 10.75 1.03 11.66 6.87 11.68h.23c5.61 0 6.03-.48 8.37-7.7z" id="selery" fill="#50B888" fill-rule="nonzero"/></svg>